<svg xmlns="http://www.w3.org/2000/svg" xmlns:xlink="http://www.w3.org/1999/xlink" height="800" width="800" viewBox="-57.6 -57.6 595.2 595.2" fill="#000000" transform="matrix(1 0 0 1 0 0)" stroke="#000000" stroke-width=".005" xmlns:v="https://vecta.io/nano"><style><![CDATA[.B{fill:#7b4e22}.C{fill:#75994c}.D{fill:#dadfe1}.E{fill:#abb7b7}.F{fill:#543518}]]></style><path fill="#70eeff" d="M283.375-45.324a83.7 83.7 0 0 0-86.75 0L1.325 73.046A83.7 83.7 0 0 0-39 144.619v190.762a83.7 83.7 0 0 0 40.325 71.573l195.3 118.37a83.7 83.7 0 0 0 86.75 0l195.3-118.37A83.7 83.7 0 0 0 519 335.381V144.619a83.7 83.7 0 0 0-40.325-71.573l-195.3-118.37z" stroke="none"/><path d="M2.872 390.352l31.588-4.786 5.743-107.207 5.743-68.919s3.707 26.75 4.786 40.203c.613 7.64 1.166 15.312.957 22.973-.996 36.529-10.529 109.121-10.529 109.121s4.401 6.1 7.658 7.658c16.212 7.753 36.532 11.355 53.604 5.743 4.934-1.622 8.628-6.193 11.486-10.529 3.721-5.645 6.701-19.144 6.701-19.144s3.711 12.925 7.658 18.187 9.031 10.502 15.315 12.444c11.013 3.402 23.576.924 34.459-2.872 5.431-1.894 14.358-9.572 14.358-9.572 1.853-43.556-10.526-92.242-10.529-133.052.186-18.68 7.658-55.518 7.658-55.518l5.743 70.833 1.914 119.651 33.502 3.829 1.914-120.608c-1.653-51.476-12.98-100.552-24.887-150.282l-60.933-17.79-6.749-10.249-50.616.619-7.6 11.148-55.015 19.144c-16.16 41.459-19.264 84.52-23.93 128.266L0 313.775l2.872 76.577z" fill="#181721"/><path d="M89.539 100.56h51.102l-7.445 66.556-17.598 44.785-17.26-40.742-8.799-70.599z" fill="#221727"/><g fill="#ca4638"><path d="M114.865 214.226l-44.989-89.977 12.444-8.615h-9.572l17.23-24.887 24.887 123.479z"/><path d="M114.865 214.226l44.989-89.977-12.444-8.615h9.572l-17.23-24.887-24.887 123.479z"/><path d="M113.891 211.984l1.913-.074 5.735 153.464-1.913.074-5.735-153.464zm33.205-49.77l12.117-14.271 15.64 15.495-27.757-1.224z"/></g><path d="M144.271 161.837l31.587-.147.019 4.051-31.587.147-.019-4.051z" fill="#3b3c3d"/><path d="M372.329 342.277l4.315-1.726-3.452-53.512-12.083-94.941-11.867-75.953c-2.903-18.58-89.726 91.385-25.246 71.637l15.536 108.75 18.125 46.607 14.672-.862zm-194.741-1.16l-4.257-1.865 5.188-53.372 15.159-94.498 14.327-75.527c3.505-18.476 86.712 94.25 22.906 72.419l-19.058 108.188-19.629 45.994-14.636-1.339z" fill="#85562a"/><path d="M253.003 80.111h43.155l5.179 14.457-49.196 2.589.862-17.046z" fill="#a16938"/><path d="M169.283 375.075l56.964-129.464c2.513-5.502 7.333-10.366 7.768-16.399.563-7.806-4.232-15.085-6.905-22.44-4.051-11.149-11.126-21.243-13.809-32.798-4.499-19.369-3.452-59.554-3.452-59.554l25.893-12.083 21.577-10.357 35.387 1.726 25.893 8.631 29.345 11.22-13.81 50.923c-5.416 22.03-16.857 43.878-14.673 66.458.695 7.182 5.615 13.296 8.631 19.851 18.985 41.263 59.554 122.56 59.554 122.56l-31.071 17.262-38.839.863 1.726 8.631-97.53-2.589 3.452-10.357-31.071-2.589-25.03-9.495z" fill="#9d6533"/><path d="M314.917 385.55l25.633-4.883-39.06-114.736 13.427 119.619z" fill="#8e5b2e"/><path d="M258.397 93.921h33.877v1.942h-33.877v-1.942z" fill="#754824"/><path d="M264.439 112.937c-3.649 0-6.662 3.013-6.662 6.662s3.013 6.66 6.662 6.66 6.66-3.012 6.66-6.66-3.011-6.662-6.66-6.662z" class="B"/><path d="M264.439 118.06c.88 0 1.537.659 1.537 1.539s-.657 1.537-1.537 1.537-1.539-.657-1.539-1.537a1.5 1.5 0 0 1 1.539-1.539z" fill="#654b32"/><path d="M234.015 103.199l18.988-23.304 15.536 30.208s-6.355 14.15-12.946 16.399c-2.245.766-4.746-.742-6.905-1.726-3.195-1.457-6.463-3.279-8.631-6.042-3.431-4.37-6.042-15.535-6.042-15.535h0z" fill="#7f522b"/><path d="M284.748 112.937c-3.649 0-6.66 3.013-6.66 6.662s3.012 6.66 6.66 6.66 6.662-3.012 6.662-6.66-3.013-6.662-6.662-6.662z" class="B"/><path d="M284.748 118.06a1.5 1.5 0 0 1 1.539 1.539c0 .88-.659 1.537-1.539 1.537s-1.537-.657-1.537-1.537.657-1.539 1.537-1.539z" fill="#654b32"/><path d="M315.146 103.199l-18.988-23.304-15.536 30.208s6.355 14.15 12.946 16.399c2.245.766 4.746-.742 6.905-1.726 3.195-1.457 6.463-3.279 8.631-6.042 3.431-4.37 6.042-15.535 6.042-15.535z" fill="#7f522b"/><path d="M270.863 106.111a5.09 5.09 0 0 0-5.039 5.039v12.58a5.09 5.09 0 0 0 5.039 5.039h7.65a5.09 5.09 0 0 0 5.039-5.039v-12.58a5.09 5.09 0 0 0-5.039-5.039h-7.65zm.084 5.125h7.482v12.41h-7.482v-12.41z" fill="#1c0e09"/><path d="M253.096 124.561v1l-.25 272.775 3.295.088.25-273.863h-3.295zm40.281 0v1l-.06 273.85 3.295.088.06-274.938h-3.295z" fill="#85562a"/><path d="M232.464 221.379s14.424 3.769 21.807 4.577c9.128.999 27.546.305 27.546.305l26.685-1.831 10.904-.305 4.304 18.919-19.798 1.831-21.52.61s-19.385.247-28.98-.916c-8.737-1.058-25.824-5.493-25.824-5.493l4.876-17.697z" class="B"/><path d="M273.055 224.355c-2.882 0-5.283 2.401-5.283 5.283v13.818c0 2.882 2.401 5.283 5.283 5.283h8.447c2.882 0 5.281-2.401 5.281-5.283v-13.818c0-2.882-2.399-5.283-5.281-5.283h-8.447zm0 5.125h8.447c.133 0 .158.026.158.158v13.818c0 .133-.026.16-.158.16h-8.447c-.132 0-.16-.028-.16-.16v-13.818c0-.133.027-.158.16-.158z" fill="#1c0e09"/><path d="M225.983 385.55l-25.633-4.883 39.059-114.737-13.426 119.62z" fill="#8e5b2e"/><g fill="#633e1c"><use xlink:href="#B"/><use xlink:href="#B" x="12.694" y="0.772"/><path d="M293.454 235.313a2.84 2.84 0 1 1-5.667.389h0a2.84 2.84 0 1 1 5.667-.389h0zm12.688-.871a2.84 2.84 0 1 1-5.667.389h0a2.84 2.84 0 1 1 5.667-.389h0z"/></g><g fill="#9d6533"><use xlink:href="#C"/><use xlink:href="#D"/><use xlink:href="#C"/><use xlink:href="#D"/><path d="M340.948 107.989l-16.823-5.094a.81.81 0 1 0-.473 1.556l16.823 5.094a.81.81 0 1 0 .473-1.556z"/><path d="M338.657 108.324h-1.061c-.842 0-1.519.678-1.519 1.519v.791c0 .842.678 1.519 1.519 1.519h1.061c.842 0 1.519-.678 1.519-1.519v-.791c0-.842-.678-1.519-1.519-1.519z"/></g><path d="M345.624 291.88l-13.298-120.201-7.4 22.612 12.066 77.165 8.632 20.424z" fill="#784e26"/><path d="M329.582 205.771h142.539a7.86 7.86 0 0 1 7.878 7.878v178.577a7.86 7.86 0 0 1-7.878 7.878H329.582a7.86 7.86 0 0 1-7.878-7.878V213.649a7.86 7.86 0 0 1 7.878-7.878z" fill="#9ccc65"/><path d="M399.121 227.549v172.555h3.463V227.549h-3.463z" fill="#89b358"/><g class="C"><use xlink:href="#E"/><use xlink:href="#E" y="26.25"/><use xlink:href="#E" y="52.5"/><use xlink:href="#E" y="78.75"/><use xlink:href="#E" y="105"/><use xlink:href="#E" y="131.25"/><use xlink:href="#E" y="157.5"/><path d="M329.582 205.772c-.436 0-.859.042-1.275.109v194.113c.416.067.84.109 1.275.109h11.85V205.772h-11.85z"/><use xlink:href="#F"/><use xlink:href="#F" x="26.25"/><use xlink:href="#F" x="52.5"/><use xlink:href="#F" x="78.75"/><path d="M459.557 205.772v194.332h12.564l.561-.027V205.799l-.561-.027h-12.564z"/></g><path d="M358.729 188.269h84.047l-41.701 40.54-42.346-40.54z" fill="#587339"/><use xlink:href="#G" class="D"/><use xlink:href="#H" class="E"/><g class="C"><use xlink:href="#I"/><use xlink:href="#J"/></g><use xlink:href="#G" y="-26.297" class="D"/><use xlink:href="#H" y="-26.297" class="E"/><g class="C"><use xlink:href="#I" y="-26.297"/><use xlink:href="#J" y="-26.297"/></g><use xlink:href="#G" y="78.89" class="D"/><use xlink:href="#K" class="E"/><g class="C"><use xlink:href="#L"/><use xlink:href="#M"/></g><use xlink:href="#G" y="52.594" class="D"/><use xlink:href="#K" y="-26.297" class="E"/><g class="C"><use xlink:href="#L" y="-26.297"/><use xlink:href="#M" y="-26.297"/></g><use xlink:href="#G" y="26.297" class="D"/><use xlink:href="#H" y="26.297" class="E"/><g class="C"><path d="M400.133 307.132c-.097-.002-.177.075-.179.172-.001.062.03.12.083.152 0 0 .539.365.727.557.218.223.617.844.617.844.052.082.161.106.242.053s.105-.159.054-.241c0 0-.376-.607-.662-.9-.257-.263-.785-.605-.785-.605-.028-.021-.062-.031-.097-.032h0z"/><path d="M401.582 307.21c-.034.002-.066.013-.094.033 0 0-.468.314-.701.541-.285.278-.697.857-.697.857-.062.074-.052.185.022.247s.185.052.247-.022c.005-.006.01-.013.015-.02 0 0 .43-.589.658-.811.176-.171.656-.504.656-.504.081-.052.105-.161.052-.242-.034-.052-.095-.083-.158-.079h0z"/></g><use xlink:href="#G" y="105.187" class="D"/><use xlink:href="#K" y="26.297" class="E"/><g class="C"><use xlink:href="#L" y="26.297"/><path d="M401.582 386.101c-.034.001-.066.012-.094.031 0 0-.468.315-.701.543-.285.278-.697.857-.697.857-.062.074-.052.185.022.247s.185.052.247-.022c.005-.006.01-.013.015-.02 0 0 .43-.589.658-.811.176-.171.656-.506.656-.506.08-.054.101-.163.047-.243-.034-.05-.092-.079-.153-.076h0z"/></g><use xlink:href="#N" class="B"/><use xlink:href="#O" class="F"/><use xlink:href="#N" x="19.276" class="B"/><use xlink:href="#O" x="19.276" class="F"/><use xlink:href="#N" y="-35.678" class="B"/><use xlink:href="#O" y="-35.678" class="F"/><use xlink:href="#N" x="19.276" y="-35.678" class="B"/><use xlink:href="#O" x="19.276" y="-35.678" class="F"/><use xlink:href="#N" y="58.918" class="B"/><use xlink:href="#O" y="58.918" class="F"/><use xlink:href="#N" x="19.276" y="58.918" class="B"/><use xlink:href="#O" x="19.276" y="58.918" class="F"/><path d="M207.259 285.703l12.083-94.941 8.631 17.262-12.083 61.28-8.631 16.399z" fill="#784e26"/><g fill="#587339"><use xlink:href="#P"/><use xlink:href="#P" x="26.25"/><use xlink:href="#P" x="52.5"/><use xlink:href="#P" x="78.75"/><use xlink:href="#P" x="105"/><use xlink:href="#P" x="131.25"/><use xlink:href="#P" y="-26.25"/><use xlink:href="#P" x="26.25" y="-26.25"/><use xlink:href="#P" x="52.5" y="-26.25"/><use xlink:href="#P" x="78.75" y="-26.25"/><use xlink:href="#P" x="105" y="-26.25"/><use xlink:href="#P" x="131.25" y="-26.25"/><use xlink:href="#P" y="-52.5"/><use xlink:href="#P" x="26.25" y="-52.5"/><use xlink:href="#P" x="52.5" y="-52.5"/><use xlink:href="#P" x="78.75" y="-52.5"/><use xlink:href="#P" x="105" y="-52.5"/><use xlink:href="#P" x="131.25" y="-52.5"/><use xlink:href="#P" y="-78.75"/><use xlink:href="#P" x="26.25" y="-78.75"/><use xlink:href="#P" x="52.5" y="-78.75"/><use xlink:href="#P" x="78.75" y="-78.75"/><use xlink:href="#P" x="105" y="-78.75"/><use xlink:href="#P" x="131.25" y="-78.75"/><use xlink:href="#P" y="-105"/><use xlink:href="#P" x="26.25" y="-105"/><use xlink:href="#P" x="52.5" y="-105"/><use xlink:href="#P" x="78.75" y="-105"/><use xlink:href="#P" x="105" y="-105"/><use xlink:href="#P" x="131.25" y="-105"/><use xlink:href="#P" y="-131.25"/><use xlink:href="#P" x="26.25" y="-131.25"/><use xlink:href="#P" x="52.5" y="-131.25"/><use xlink:href="#P" x="78.75" y="-131.25"/><use xlink:href="#P" x="105" y="-131.25"/><use xlink:href="#P" x="131.25" y="-131.25"/><use xlink:href="#P" y="-157.5"/><use xlink:href="#P" x="26.25" y="-157.5"/><use xlink:href="#P" x="52.5" y="-157.5"/><use xlink:href="#P" x="78.75" y="-157.5"/><use xlink:href="#P" x="105" y="-157.5"/><use xlink:href="#P" x="131.25" y="-157.5"/></g><path d="M458.091 205.89l-15.317-17.621-28.86 27.715 18.697 21.584 25.48-31.678zm-114.477 0l15.316-17.621 28.86 27.715-18.697 21.584-25.479-31.678z" fill="#9ccc65"/><path d="M369.489 205.765h69.158v34.883h-69.158v-34.883z" class="C"/><use xlink:href="#G" y="-52.593" class="D"/><path d="M400.852 226.849a2.29 2.29 0 0 0-2.289 2.287c0 1.261 1.028 2.289 2.289 2.289s2.289-1.028 2.289-2.289-1.029-2.287-2.289-2.287zm0 .525a1.76 1.76 0 1 1 0 3.526 1.76 1.76 0 0 1-1.762-1.764c0-.977.785-1.762 1.762-1.762z" class="E"/><g class="C"><path d="M400.115 228.243c-.096.009-.167.094-.158.191.005.054.035.102.08.132a7.11 7.11 0 0 0 .727.559c.218.223.617.842.617.842.047.085.154.115.238.068s.115-.154.068-.238c-.009-.015-.385-.624-.671-.917-.257-.263-.785-.605-.785-.605-.034-.025-.075-.036-.116-.032h0z"/><path d="M401.582 228.32c-.034.002-.066.013-.094.033 0 0-.468.314-.701.541-.285.278-.697.857-.697.857-.062.074-.052.185.022.247s.185.052.247-.022c.005-.006.01-.013.015-.02 0 0 .43-.589.658-.811.176-.171.656-.504.656-.504.081-.052.105-.161.052-.242-.034-.053-.095-.083-.158-.079h0z"/></g><defs ><path id="B" d="M252.024 235.29a2.84 2.84 0 0 1-3.007 2.662 2.84 2.84 0 0 1-2.662-3.007h0a2.84 2.84 0 0 1 3.007-2.662h0a2.84 2.84 0 0 1 2.662 3.007h0 0z"/><path id="C" d="M213.607 109.553l16.823-5.094a.81.81 0 1 1 .473 1.556l-16.823 5.094a.81.81 0 1 1-.473-1.556z"/><path id="D" d="M215.899 109.888h1.061c.842 0 1.519.678 1.519 1.519v.791c0 .842-.678 1.519-1.519 1.519h-1.061c-.842 0-1.519-.678-1.519-1.519v-.791c0-.841.677-1.519 1.519-1.519h0z"/><path id="E" d="M321.703 218.348v13.125H480v-13.125H321.703z"/><path id="F" d="M354.557 205.772v194.332h13.125V205.772h-13.125z"/><path id="G" d="M404.299 281.73a3.45 3.45 0 0 1-3.447 3.447 3.45 3.45 0 0 1-3.447-3.447 3.45 3.45 0 0 1 3.447-3.447 3.45 3.45 0 0 1 3.447 3.447z"/><path id="H" d="M400.852 279.441c-1.261 0-2.289 1.028-2.289 2.289s1.028 2.289 2.289 2.289 2.289-1.028 2.289-2.289-1.029-2.289-2.289-2.289zm0 .527a1.76 1.76 0 1 1 0 3.526 1.76 1.76 0 0 1-1.762-1.764c0-.977.785-1.762 1.762-1.762z"/><path id="I" d="M400.115 280.837c-.096.009-.167.094-.158.191.005.054.035.102.08.132 0 0 .539.365.727.557.218.223.617.844.617.844.052.082.161.106.242.053s.105-.159.054-.241c0 0-.376-.607-.662-.9-.257-.263-.785-.605-.785-.605-.033-.024-.074-.035-.115-.031h0z"/><path id="J" d="M401.582 280.913c-.034.002-.066.013-.094.033 0 0-.468.314-.701.541-.285.278-.697.857-.697.857-.062.074-.052.185.022.247s.185.052.247-.022c.005-.006.01-.013.015-.02 0 0 .43-.589.658-.811.176-.171.656-.504.656-.504.081-.052.105-.161.052-.242-.034-.052-.095-.082-.158-.079h0z"/><path id="K" d="M400.852 358.331c-1.261 0-2.289 1.028-2.289 2.289s1.028 2.289 2.289 2.289 2.289-1.028 2.289-2.289-1.029-2.289-2.289-2.289zm0 .526a1.76 1.76 0 1 1 0 3.528 1.76 1.76 0 1 1 0-3.528z"/><path id="L" d="M400.133 359.726c-.097-.002-.177.075-.179.172-.001.062.03.12.083.152 0 0 .539.365.727.557.218.223.617.844.617.844.052.082.161.106.242.053s.105-.159.054-.241c0 0-.376-.607-.662-.9-.257-.263-.785-.605-.785-.605-.028-.021-.062-.032-.097-.032h0z"/><path id="M" d="M401.582 359.804c-.034.001-.066.012-.094.031 0 0-.468.315-.701.543-.285.278-.697.857-.697.857-.062.074-.052.185.022.247s.185.052.247-.022c.005-.006.01-.013.015-.02 0 0 .43-.589.658-.811.176-.171.656-.504.656-.504.081-.052.105-.161.052-.242-.034-.052-.095-.083-.158-.079h0z"/><path id="N" d="M269.603 196.705a4.32 4.32 0 1 1-8.64 0 4.32 4.32 0 0 1 8.64 0z"/><path id="O" d="M267.916 196.705c0 1.454-1.179 2.633-2.633 2.633h0c-1.454 0-2.633-1.179-2.633-2.633h0c0-1.454 1.179-2.633 2.633-2.633s2.633 1.179 2.633 2.633z"/><path id="P" d="M328.307 375.848v13.125h13.125v-13.125h-13.125z"/></defs></svg>